<?xml version="1.0" encoding="UTF-8" standalone="no"?>
<!DOCTYPE svg PUBLIC "-//W3C//DTD SVG 1.1//EN"
 "http://www.w3.org/Graphics/SVG/1.1/DTD/svg11.dtd">
<!-- Generated by graphviz version 13.1.0 (20250701.0955)
 -->
<!-- Title: lm75b_basic_deinit Pages: 1 -->
<svg width="234pt" height="66pt"
 viewBox="0.00 0.00 234.00 66.00" xmlns="http://www.w3.org/2000/svg" xmlns:xlink="http://www.w3.org/1999/xlink">
<g id="graph0" class="graph" transform="scale(1 1) rotate(0) translate(4 62)">
<title>lm75b_basic_deinit</title>
<!-- Node1 -->
<g id="Node000001" class="node">
<title>Node1</title>
<g id="a_Node000001"><a xlink:title="basic example deinit">
<polygon fill="#999999" stroke="#666666" points="99.25,-39 0,-39 0,-19 99.25,-19 99.25,-39"/>
<text xml:space="preserve" text-anchor="middle" x="49.62" y="-25.5" font-family="Helvetica,sans-Serif" font-size="10.00">lm75b_basic_deinit</text>
</a>
</g>
</g>
<!-- Node2 -->
<g id="Node000002" class="node">
<title>Node2</title>
<g id="a_Node000002"><a xlink:href="group__lm75b__base__driver.html#gaebf99b5d5ffedabbba7d898f771e13a0" target="_top" xlink:title="close the chip">
<polygon fill="white" stroke="#666666" points="215.75,-58 145,-58 145,-38 215.75,-38 215.75,-58"/>
<text xml:space="preserve" text-anchor="middle" x="180.38" y="-44.5" font-family="Helvetica,sans-Serif" font-size="10.00">lm75b_deinit</text>
</a>
</g>
</g>
<!-- Node1&#45;&gt;Node2 -->
<g id="edge1_Node000001_Node000002" class="edge">
<title>Node1&#45;&gt;Node2</title>
<g id="a_edge1_Node000001_Node000002"><a xlink:title=" ">
<path fill="none" stroke="#63b8ff" d="M99.67,-36.24C110.85,-37.89 122.69,-39.63 133.72,-41.26"/>
<polygon fill="#63b8ff" stroke="#63b8ff" points="132.96,-44.69 143.37,-42.69 133.99,-37.76 132.96,-44.69"/>
</a>
</g>
</g>
<!-- Node3 -->
<g id="Node000003" class="node">
<title>Node3</title>
<g id="a_Node000003"><a xlink:href="group__lm75b__base__driver.html#ga6ca5190e2bdc83bc579a9aeeb737b24c" target="_top" xlink:title="set the chip mode">
<polygon fill="white" stroke="#666666" points="225.5,-20 135.25,-20 135.25,0 225.5,0 225.5,-20"/>
<text xml:space="preserve" text-anchor="middle" x="180.38" y="-6.5" font-family="Helvetica,sans-Serif" font-size="10.00">lm75b_set_mode</text>
</a>
</g>
</g>
<!-- Node1&#45;&gt;Node3 -->
<g id="edge2_Node000001_Node000003" class="edge">
<title>Node1&#45;&gt;Node3</title>
<g id="a_edge2_Node000001_Node000003"><a xlink:title=" ">
<path fill="none" stroke="#63b8ff" d="M99.67,-21.76C107.59,-20.59 115.84,-19.38 123.9,-18.19"/>
<polygon fill="#63b8ff" stroke="#63b8ff" points="124.24,-21.68 133.62,-16.75 123.21,-14.75 124.24,-21.68"/>
</a>
</g>
</g>
</g>
</svg>
